<?xml version="1.0" encoding="utf-8"?><svg version="1.1" id="Layer_1" xmlns="http://www.w3.org/2000/svg" xmlns:xlink="http://www.w3.org/1999/xlink" x="0px" y="0px" viewBox="0 0 81.01 122.88" style="enable-background:new 0 0 81.01 122.88" xml:space="preserve"><style type="text/css">.st0{fill-rule:evenodd;clip-rule:evenodd;}</style><g><path class="st0" d="M68.19,12.99c-2.93,1.48-9.26,2.3-16.67,2.63c0.68,0.56,1.3,1.15,1.78,1.78c1.73,2.29,1.8,4.79-2.16,7.78 c-0.6,0.45-1.45,0.33-1.9-0.27s-0.33-1.45,0.27-1.9c2.28-1.73,2.4-2.96,1.63-3.98c-0.77-1.02-2.21-2.02-3.65-3.03l-0.36-0.25 c-5.07,0.09-10.41-0.02-15.37-0.29c-0.26,0.38-0.48,0.78-0.68,1.21c-0.92,1.96-1.27,4.44-1.15,7.37c0.03,0.75-0.55,1.38-1.3,1.41 c-0.75,0.03-1.38-0.55-1.41-1.3c-0.14-3.36,0.3-6.25,1.41-8.62c0.04-0.08,0.08-0.17,0.12-0.25c-7.31-0.51-13.41-1.36-16-2.42 c-6,24.07-7.56,53.65-9.12,83.22c-0.14,2.66-1.36,12.31-0.01,14.04c0.18,0.23,0.38,0.44,0.59,0.62c0.07,0.04,0.13,0.09,0.18,0.15 c0.08,0.06,0.17,0.12,0.26,0.18c0.94,0.61,3.74,1.11,6.68,1.38c3.09,0.28,6.19,0.28,7.33-0.13c0.81-0.3,1.47-0.71,1.97-1.25 c0.5-0.54,0.85-1.22,1.07-2.05l0.69-2.88l-0.01,0c5.06-21.21,10.8-45.24,16.88-53.84c0.43-0.61,1.28-0.76,1.89-0.33l0.03,0.02 c4.79,3.12,11.55,29.26,17.15,50.94c0.8,3.08,0.96,7.06,3.73,8.78l0.04,0.02c1.38,0.8,4.86,1.03,8.28,0.69 c3.29-0.33,6.39-1.14,7.18-2.39l0,0l0.03-0.06l0.02-0.03c0.21-0.38,0.38-0.78,0.49-1.2c0.12-0.44,0.19-0.91,0.22-1.42 c-0.18-2.67-0.38-5.69-0.57-8.72C75.82,69.37,73.9,40.15,68.19,12.99L68.19,12.99z M34.23,10.01c0.68-0.31,1.49,0,1.79,0.68 c0.31,0.68,0,1.49-0.68,1.79c-0.53,0.24-1.03,0.52-1.48,0.83c0.39,0.28,0.87,0.44,1.39,0.44c1.32,0,2.39-1.07,2.39-2.39 c0-1.32-1.07-2.39-2.39-2.39c-1.08,0-1.98,0.71-2.28,1.69C33.37,10.43,33.79,10.21,34.23,10.01L34.23,10.01z M42.94,11.96 c-0.39-0.64-0.19-1.47,0.45-1.86c0.64-0.39,1.47-0.19,1.86,0.45c0.28,0.46,0.73,0.92,1.28,1.39c0.04-0.18,0.07-0.37,0.07-0.56 c0-1.32-1.07-2.39-2.39-2.39c-1.32,0-2.39,1.07-2.39,2.39c0,1.32,1.07,2.39,2.39,2.39c0.1,0,0.19-0.01,0.28-0.02 C43.87,13.18,43.33,12.59,42.94,11.96L42.94,11.96z M63.49,114.95l0.43,2.46c0.37,2.1,1.98,2.71,3.91,2.67 c2.36-0.06,5.22-1.02,7.28-1.75c0.02-0.01,0.05-0.02,0.07-0.02l0.31-0.11c0.89-0.32,1.24-0.37,1.26-0.41 c0.03-0.05-0.04-0.23-0.07-0.73c-0.02-0.37-0.05-0.83-0.06-1.49l-0.02-1.79c-1.71,0.68-3.83,1.13-5.98,1.34 C68.12,115.36,65.52,115.31,63.49,114.95L63.49,114.95z M79.28,112.14l0.05,3.38c0.01,0.5,0.03,0.98,0.06,1.37 c0.06,1.03,0.09,1.6-0.3,2.26c-0.48,0.8-1.16,1.05-2.69,1.59l-0.31,0.11c-0.02,0.01-0.04,0.02-0.06,0.02 c-2.23,0.8-5.33,1.83-8.13,1.9c-3.23,0.08-5.96-1.05-6.64-4.91l-0.69-3.9c-0.54-0.34-1.05-0.76-1.53-1.24 c-2.4-2.43-2.52-5.91-3.35-9.13c-5.1-19.74-11.18-43.29-15.07-48.45C35.13,64.33,29.77,86.81,25,106.77l0,0l0,0l-0.69,2.88h0 l-0.01,0.02c-0.33,1.28-0.91,2.36-1.71,3.23c-0.52,0.56-1.13,1.03-1.82,1.41l-0.53,3.1c-0.08,0.46-0.2,0.88-0.35,1.28 c-0.82,2.15-2.53,3.33-4.62,3.85c-1.87,0.48-4.05,0.4-6.07,0.05c-1.44-0.25-2.81-0.64-3.94-1.07c-3.35-1.27-3.35-1.48-3.25-4.18 c0.01-0.29,0.02-0.62,0.02-0.94l0.04-3.93c-0.22-0.21-0.42-0.44-0.61-0.69c-2.78-3.57-0.8-11.31-0.56-15.84 c1.57-29.88,3.15-59.75,9.29-84.13L11.48,3c0.1-0.69,0.69-1.18,1.37-1.16C16.62,0.56,27.16,0,38.16,0C50.7,0,63.95,0.72,68.44,1.95 C68.63,2,68.8,2.09,68.94,2.21c0.33,0.21,0.57,0.56,0.62,0.98l1.01,7.97c5.96,27.69,7.91,57.48,9.86,87.27 c0.18,2.8,0.37,5.61,0.58,8.77h0c0,0.05,0,0.1,0,0.15c-0.03,0.73-0.14,1.43-0.32,2.1c-0.18,0.66-0.43,1.27-0.75,1.84 c-0.01,0.03-0.03,0.06-0.05,0.09l-0.03,0.06l0,0l-0.01,0.01C79.69,111.68,79.5,111.92,79.28,112.14L79.28,112.14z M4.77,114.03 l-0.02,2.4c0,0.42-0.02,0.73-0.02,1.01c-0.03,0.91-0.03,0.98,1.5,1.56c0.98,0.37,2.18,0.71,3.44,0.93 c1.69,0.29,3.48,0.36,4.95-0.01c1.26-0.32,2.29-0.99,2.74-2.18c0.09-0.23,0.16-0.5,0.21-0.78l0.3-1.75 c-1.79,0.2-4.34,0.16-6.81-0.06C8.73,114.93,6.4,114.54,4.77,114.03L4.77,114.03z M39.9,5.06c7.75,0,15.65-0.45,21.47-1.45 c-6.03-0.57-14.76-0.89-23.21-0.89c-7.81,0-15.32,0.27-20.15,0.85C23,4.52,31.32,5.06,39.9,5.06L39.9,5.06z"/></g></svg>