<?xml version="1.0" encoding="utf-8"?>
<!-- Generator: Adobe Illustrator 26.0.1, SVG Export Plug-In . SVG Version: 6.00 Build 0)  -->
<svg version="1.1" id="Layer_1" xmlns="http://www.w3.org/2000/svg" xmlns:xlink="http://www.w3.org/1999/xlink" x="0px" y="0px"
	 viewBox="0 0 122.9 103" style="enable-background:new 0 0 122.9 103;" xml:space="preserve">
<g>
	<path d="M19.4,46L29,34.2c0.5-0.6,1.3-0.6,1.8-0.2c0.3,0.3,0.5,0.6,0.5,1l0,0v55.3h60.6V34c0-0.7,0.6-1.3,1.3-1.3
		c0.5,0,0.9,0.2,1.1,0.6l9.4,13.2c0.2,0.2,0.3,0.5,0.2,0.8l-0.2,25h12.1l4.4-34.6c-5.1-10.1-10.8-18.9-17.5-25.2
		C96.3,6.7,88.9,3,80.1,2.6c-0.7,6.6-4.4,11.5-9.2,14.4c-2.6,1.5-5.5,2.4-8.4,2.6c-3,0.2-6-0.3-8.8-1.5c-5.2-2.3-9.6-7.3-11.3-15.4
		C34.9,3.1,28,6.3,21.6,12C14.8,18,8.5,26.6,2.6,37.5L7,72.9h11.9l0.2-26.1C19.1,46.5,19.2,46.2,19.4,46L19.4,46L19.4,46z M5.7,84.4
		l-1.2-10c0,0,0-0.1,0-0.1L0,37.4l0,0c0-0.3,0-0.5,0.1-0.8C6.2,25.3,12.7,16.3,19.8,10c7.2-6.3,15-9.9,23.5-10
		c0.7-0.1,1.3,0.4,1.4,1.1c1.4,7.8,5.3,12.5,10,14.6c2.4,1.1,5,1.5,7.5,1.3c2.6-0.2,5.1-1,7.3-2.3c4.4-2.6,7.8-7.3,8-13.5l0,0
		c0-0.7,0.6-1.2,1.3-1.2C89,0.1,97.3,4.1,104.5,10.7c7.1,6.6,13,15.7,18.2,26.3l0,0c0.1,0.2,0.2,0.5,0.1,0.7l-4.6,36.2l0,0L117,84.2
		c0,0.7-0.6,1.3-1.3,1.3h-13.3v0h0c-0.7,0-1.3-0.6-1.3-1.3l0.1-10.3l0,0c0,0,0-0.1,0-0.1c0,0,0-0.1,0-0.1l0.2-25.9l-6.8-9.6v53.5v10
		c0,0.7-0.6,1.3-1.3,1.3H30c-0.7,0-1.3-0.6-1.3-1.3v-10V38.7l-7,8.6l-0.3,36.9c0,0,0,0.1,0,0.1c0,0.7-0.6,1.3-1.3,1.3H7l0,0
		C6.4,85.6,5.8,85.1,5.7,84.4L5.7,84.4z"/>
</g>
</svg>
