<svg xmlns="http://www.w3.org/2000/svg" width="117.6" height="87.7" viewBox="0 0 117.6 87.7">
  <path id="Path_3" data-name="Path 3" d="M19.4,46,29,34.2a1.285,1.285,0,0,1,1.8-.2,1.389,1.389,0,0,1,.5,1h0V90.3H91.9V34a1.324,1.324,0,0,1,1.3-1.3,1.149,1.149,0,0,1,1.1.6l9.4,13.2a.778.778,0,0,1,.2.8l-.2,25h12.1l4.4-34.6c-5.1-10.1-10.8-18.9-17.5-25.2C96.3,6.7,88.9,3,80.1,2.6A18.865,18.865,0,0,1,70.9,17a19.618,19.618,0,0,1-8.4,2.6,19.055,19.055,0,0,1-8.8-1.5c-5.2-2.3-9.6-7.3-11.3-15.4C34.9,3.1,28,6.3,21.6,12c-6.8,6-13.1,14.6-19,25.5L7,72.9H18.9l.2-26.1a1.136,1.136,0,0,1,.3-.8Z" transform="translate(-2.6 -2.6)" fill="#797171"/>
</svg>
