<svg id="sport-trousers-pants" xmlns="http://www.w3.org/2000/svg" width="75.33" height="99.786" viewBox="0 0 75.33 99.786">
  <path id="Path_2" data-name="Path 2" d="M68.19,12.99c-2.93,1.48-9.26,2.3-16.67,2.63.68.56-22.89-.09-22.89-.09.04-.08.08-.17.12-.25-7.31-.51-13.41-1.36-16-2.42-6,24.07-7.56,53.65-9.12,83.22-.14,2.66-1.36,12.31-.01,14.04a4.354,4.354,0,0,0,.59.62.655.655,0,0,1,.18.15c.08.06.17.12.26.18.94.61,3.74,1.11,6.68,1.38,3.09.28,6.19.28,7.33-.13a4.981,4.981,0,0,0,1.97-1.25,4.725,4.725,0,0,0,1.07-2.05l.69-2.88h-.01C27.44,84.93,33.18,60.9,39.26,52.3a1.36,1.36,0,0,1,1.89-.33l.03.02c4.79,3.12,11.55,29.26,17.15,50.94.8,3.08.96,7.06,3.73,8.78l.04.02c1.38.8,4.86,1.03,8.28.69,3.29-.33,6.39-1.14,7.18-2.39h0l.03-.06.02-.03a5.22,5.22,0,0,0,.49-1.2,6.919,6.919,0,0,0,.22-1.42c-.18-2.67-.38-5.69-.57-8.72-1.93-29.23-3.85-58.45-9.56-85.61Z" transform="translate(-2.99 -12.86)" fill="#797171" fill-rule="evenodd"/>
</svg>
